<?xml version="1.0" encoding="utf-8"?>
<!-- Generator: Adobe Illustrator 25.2.0, SVG Export Plug-In . SVG Version: 6.00 Build 0)  -->
<svg version="1.0" id="Layer_1" xmlns="http://www.w3.org/2000/svg" xmlns:xlink="http://www.w3.org/1999/xlink" x="0px" y="0px"
	 viewBox="0 0 150 150" enable-background="new 0 0 150 150" xml:space="preserve">
<path fill="#1E5EAC" d="M141.5,146.5H8.5c-2.8,0-5-2.2-5-5V8.5c0-2.8,2.2-5,5-5h132.9c2.8,0,5,2.2,5,5v132.9
	C146.5,144.2,144.2,146.5,141.5,146.5z"/>
<path fill="#1E5EAC" stroke="#FFFFFF" stroke-width="2" stroke-miterlimit="10" d="M138.7,141H11.3c-1.5,0-2.8-1.2-2.8-2.8V11.8
	c0-1.5,1.2-2.8,2.8-2.8h127.5c1.5,0,2.8,1.2,2.8,2.8v126.5C141.5,139.8,140.3,141,138.7,141z"/>
<g display="none">
	<g display="inline">
		<path fill="#FFFFFF" d="M103.3,23.7c0.6,0.5,1.2,1.1,0.8,2c-0.4,0.9-1.1,1-2,1c-19.8,0-39.7,0-59.5,0c-3.3,0-5.8,2.4-5.8,5.7
			c0.1,6.1,0,12.2,0,18.2c0,3.4,2.1,5.5,5.6,5.5c3.2,0,6.3,0,9.5,0c1.2,0,2,0.6,2,1.5c0,0.9-0.7,1.5-1.9,1.5c-3.2,0-6.4,0-9.6,0
			c-4.8,0-8.3-3.1-8.5-7.9c-0.2-6.6-0.2-13.2,0-19.8c0.1-3.7,2.3-6.3,5.9-7.5c0.2-0.1,0.4-0.2,0.6-0.3
			C61.3,23.7,82.3,23.7,103.3,23.7z"/>
		<path fill="#FFFFFF" d="M113.9,23.7c0.4,0.1,0.8,0.2,1.2,0.4c3.3,1,5.6,3.7,5.7,7.3c0.1,6.8,0.2,13.6,0,20.4
			c-0.1,4.1-3.8,7.3-7.8,7.3c-13,0-26,0-39,0c-1.1,0-1.8-0.6-1.8-1.6c0-0.9,0.7-1.5,1.9-1.5c12.7,0,25.5,0,38.2,0
			c2.8,0,4.8-1.4,5.4-3.9c0.1-0.5,0.1-1.1,0.1-1.6c0-6.1,0-12.3,0-18.4c0-3.4-2.2-5.5-5.5-5.5c-0.9,0-1.7,0-2.6,0
			c-0.8,0-1.6-0.1-2-1c-0.4-0.9,0.2-1.5,0.8-2C110.3,23.7,112.1,23.7,113.9,23.7z"/>
		<path fill="#FFFFFF" d="M40,67.4c2.9-2.7,6-2.7,9.2,0c2.2-2.2,4.7-2.6,7.7-1.3c0-1.1,0-2.2,0-3.2c0-2.6-0.1-5.2,0.1-7.8
			c0.2-3.6,2.9-5.9,6.6-5.8c3.1,0.1,5.6,2.9,5.7,6.3c0,7.2,0,14.4,0,21.6c0,2.2,0,4.4,0,6.9c1.9-1.8,3.7-3.4,5.4-5.1
			c2.5-2.3,6.2-1.9,7.9,0.8c1.1,1.6,1.2,3.4,0.4,5.1c-1.9,3.7-3.8,7.4-5.7,11.1c-0.5,1-1.3,1.2-2.2,0.8c-0.8-0.4-1-1.3-0.5-2.2
			c1.8-3.6,3.7-7.1,5.5-10.6c0.4-0.8,0.5-1.7,0-2.5c-0.5-0.7-1.2-1.1-2.1-0.8c-0.5,0.1-1,0.4-1.4,0.8c-2.5,2.3-5,4.6-7.4,6.9
			c-0.6,0.6-1.3,1-2.1,0.7c-0.9-0.4-0.9-1.2-0.9-2c0-10.3,0-20.5,0-30.8c0-0.6,0-1.3-0.2-1.9c-0.5-1.4-2-2.2-3.3-2
			C61,52.6,60,53.9,60,55.5c0,7.9,0,15.7,0,23.6c0,0.3,0,0.5,0,0.8c-0.1,1-0.7,1.7-1.5,1.7c-0.9,0-1.5-0.6-1.6-1.6
			c0-0.3,0-0.5,0-0.8c0-2.4,0-4.8,0-7.2c0-0.6-0.1-1.3-0.4-1.8c-0.6-1.2-2-1.9-3.3-1.6c-1.5,0.3-2.5,1.5-2.5,3c0,2.6,0,5.3,0,7.9
			c0,0.3,0,0.7-0.1,1c-0.2,0.8-0.7,1.2-1.5,1.2c-0.8,0-1.3-0.5-1.4-1.3c-0.1-0.3-0.1-0.7-0.1-1c0-2.5,0-5,0-7.5c0-2-1.3-3.3-3.1-3.3
			c-1.7,0-3,1.4-3,3.3c0,2.7,0,5.4,0,8.1c0,1-0.6,1.6-1.5,1.7c-0.9,0-1.5-0.6-1.6-1.6c0-0.3,0-0.5,0-0.8c0-2.4,0-4.7,0-7.1
			c0-0.5,0-1.1-0.2-1.6c-0.5-1.4-2-2.2-3.3-2c-1.5,0.3-2.6,1.5-2.6,3c0,3.9,0,7.8,0,11.7c0,0.4,0,0.8-0.1,1.2
			c-0.2,0.7-0.8,1.2-1.5,0.9c-0.5-0.2-0.9-0.7-1.3-1.2c-0.2-0.2-0.1-0.6-0.1-0.9c0-3.8,0-7.6,0-11.3c0-3.3,1.9-5.7,4.9-6.4
			C36,65,37.7,65.6,40,67.4z"/>
		<path fill="#FFFFFF" d="M32.3,99.7c0,2.8,0,5.5,0,8.3c0,1.1,0.2,2.1,0.8,3c1.8,2.3,2.4,4.9,2.1,7.9c-0.2,1.8,0,3.6,0,5.4
			c0,1.3-0.6,1.9-1.6,1.9c-0.9,0-1.5-0.7-1.5-1.9c0-2.7,0-5.3,0-8c0-0.5-0.1-1.1-0.4-1.5c-2.1-2.9-2.7-6.1-2.6-9.6
			c0.2-4.7,0-9.3,0-14c0-0.2,0-0.5,0-0.7c0.1-1.1,0.6-1.8,1.5-1.8c0.9,0,1.6,0.7,1.6,1.8C32.3,93.5,32.3,96.6,32.3,99.7z"/>
		<path fill="#FFFFFF" d="M69.1,47.9c-3.9,0-7-3.2-7-7c0-3.9,3.2-7.1,7.2-7.1c3.8,0,7,3.2,7,7.1C76.2,44.8,73,47.9,69.1,47.9z
			 M73.1,41c0-2.2-1.7-4-3.9-4.1c-2.2,0-4,1.8-4,4c0,2.2,1.7,4,3.9,4.1C71.3,44.9,73.1,43.2,73.1,41z"/>
		<path fill="#FFFFFF" d="M58.2,39.5c1.4,1.4,2,3.1,1.2,5c-0.7,1.9-2.2,2.8-4.1,2.9c-1.2,0.1-2.4,0-3.6,0c-1.2,0-1.7-0.6-1.7-1.7
			c0-3.6,0-7.1,0-10.7c0-1,0.5-1.6,1.5-1.7c1.2-0.1,2.4-0.1,3.6,0C57.4,33.5,59.8,36.1,58.2,39.5z M53,41.5c0,1,0,2,0,2.9
			c0.8,0,1.5,0,2.3,0c0.9,0,1.3-0.6,1.3-1.4c0-0.9-0.5-1.4-1.4-1.4C54.5,41.5,53.8,41.5,53,41.5z M53,38.8c1-0.3,1.8-0.5,2.5-0.9
			c0.1-0.1,0.1-1-0.1-1c-0.8-0.3-1.6-0.4-2.4-0.6C53,37.2,53,37.8,53,38.8z"/>
		<path fill="#FFFFFF" d="M85.4,47.9c-3.9,0-7.1-3.2-7-7.1c0-3.9,3.2-7,7.1-7c3.8,0,7,3.2,7,7C92.5,44.8,89.3,47.9,85.4,47.9z
			 M85.4,44.9c2.2,0,4-1.8,4-4c0-2.2-1.9-4-4-4c-2.2,0-4,1.8-4,4C81.4,43.1,83.2,44.9,85.4,44.9z"/>
		<path fill="#FFFFFF" d="M58.2,120.6c0-1.2,0-2.5,0-3.7c0-0.8,0.2-1.3,0.8-1.8c2.6-2.3,5.1-4.8,7.7-7.1c1.4-1.2,2.5-2.6,3.2-4.3
			c0.5-1.1,1-2.1,1.6-3.1c0.5-0.9,1.3-1.2,2.1-0.8c0.8,0.4,1.1,1.2,0.6,2.1c-0.9,1.8-1.7,3.5-2.7,5.2c-0.5,0.8-1.2,1.5-1.9,2.2
			c-2.5,2.4-5.1,4.8-7.7,7.2c-0.5,0.5-0.7,0.9-0.6,1.6c0,2.1,0,4.3,0,6.4c0,1.2-0.6,1.8-1.5,1.8c-1,0-1.5-0.6-1.5-1.8
			C58.1,123.2,58.2,121.9,58.2,120.6z"/>
		<path fill="#FFFFFF" d="M100,39.9c1.4,1.5,2.8,3.1,4.2,4.6c0.9,0.9,1,1.7,0.3,2.4c-0.7,0.7-1.6,0.6-2.5-0.3
			c-0.3-0.3-0.6-0.6-0.9-0.9c-0.7-0.7-1.5-1.4-2.2-2.2c0,0-0.1,0-0.3,0c0,0.8,0,1.5,0,2.3c0,1-0.6,1.5-1.5,1.5
			c-0.8,0-1.5-0.6-1.5-1.5c0-3.7,0-7.3,0-11c0-0.9,0.7-1.5,1.5-1.5c0.8,0,1.4,0.6,1.5,1.5c0,0.3,0,0.7,0,1c0,0.3,0,0.6,0,1.1
			c1.1-1,2-1.9,3-2.7c0.3-0.3,0.6-0.6,1-0.7c0.7-0.2,1.3-0.1,1.8,0.6c0.5,0.7,0.3,1.4-0.3,2c-1.2,1.1-2.4,2.2-3.5,3.3
			c-0.2,0.2-0.5,0.5-0.7,0.7C99.8,40,99.9,39.9,100,39.9z"/>
		<path fill="#FFFFFF" d="M107.5,68.7c0,0.6,0,1.2,0,1.8c-0.1,1-0.7,1.6-1.6,1.6c-0.9,0-1.5-0.6-1.5-1.5c-0.1-1.2-0.1-2.4,0-3.6
			c0-1,0.7-1.5,1.5-1.5c0.9,0,1.4,0.5,1.6,1.5c0,0.1,0,0.1,0,0.2C107.5,67.6,107.5,68.1,107.5,68.7
			C107.5,68.7,107.5,68.7,107.5,68.7z"/>
		<path fill="#FFFFFF" d="M113,62.9c0.4,0.1,0.7,0.2,0.9,0.3c1.1,0.8,2.3,1.6,3.4,2.5c0.6,0.5,0.6,1.3,0.1,2
			c-0.5,0.6-1.2,0.8-1.9,0.4c-1.1-0.7-2.3-1.5-3.3-2.4c-0.3-0.3-0.5-1.1-0.3-1.6C112,63.5,112.6,63.2,113,62.9z"/>
		<path fill="#FFFFFF" d="M100.2,64.8c-0.1,0.2-0.3,0.7-0.7,1c-0.9,0.7-1.8,1.4-2.8,2.1c-0.8,0.6-1.7,0.5-2.2-0.3
			c-0.5-0.7-0.4-1.6,0.4-2.2c0.9-0.7,1.9-1.5,2.9-2.1C98.8,62.6,100.1,63.3,100.2,64.8z"/>
	</g>
</g>
<g display="none">
	<g display="inline">
		<path fill="#FFFFFF" d="M18.3,87.4c0.6,0,1.2,0,2.2,0c-0.4-0.6-0.6-1-0.8-1.4c-0.3-0.5-0.8-1-0.9-1.5c-0.4-5.6-0.4-11.2,1-16.7
			c0.5-2.1,1.4-4,2.9-5.6c1.3-1.4,2.8-2.1,4.7-2.1c3.3,0.1,6.5,0,9.8,0c0.5,0,1-0.1,1.4-0.3c2.7-1.2,5.4-2.4,8.1-3.7
			c0.4-0.2,0.9-0.7,1-1.2c0.8-2.8,1.5-5.6,2.2-8.4c0.2-1,0.7-1.8,1.8-2.1c1.6-0.4,3.1,1,2.7,2.6c-0.9,3.6-1.8,7.3-2.8,10.9
			c-0.2,0.6-0.9,1.3-1.6,1.6c-3.1,1.5-6.1,2.8-9.3,4.2c-0.7,0.3-0.9,0.7-0.9,1.4c0,14,0,28.1,0,42.1c0,2.4-1.5,4-3.7,3.9
			c-1.8-0.1-3.1-1.6-3.1-3.5c0-7.7,0-15.4,0-23c0-0.5,0-0.9,0-1.5c-0.4,0-0.7,0-1.3-0.1c0,0.5,0,0.9,0,1.3c0,7.7,0,15.4,0,23
			c0,2.4-1.5,3.9-3.7,3.7c-1.5-0.1-2.8-1.2-3-2.7c-0.1-0.6-0.1-1.1-0.1-1.7c0-12.6,0-25.3,0-37.9c0-0.4,0-0.8,0-1.3
			c-0.1,0-0.2,0-0.4-0.1c-0.3,1.5-0.9,2.9-1,4.4c-0.2,3.9-0.3,7.8-0.4,11.7c0,1.1-0.2,1.9-1.1,2.6c-0.3,0.2-0.4,0.7-0.8,1.2
			c0.9,0,1.4,0.1,2.1,0.1c0,3.6,0,7.3,0,11.1c-1.6,0-3.3,0-5,0C18.3,94.9,18.3,91.1,18.3,87.4z"/>
		<path fill="#FFFFFF" d="M123.4,81.2c0.4,0,0.6,0,0.8,0c1.8,0,2.5,0.8,2,2.6c-0.1,0.4-0.8,1-1.3,1c-2.7,0.1-5.5,0-8.3,0
			c-0.4-2.4-1.4-4.4-3.5-5.7c-1.3-0.8-2.8-1.2-4.4-1.1c-2.9,0.2-6.2,2.1-6.9,6.8c-14.2,0-28.3,0-42.6,0c-0.4-2.4-1.5-4.5-3.7-5.8
			c-1.3-0.8-2.8-1.2-4.3-1c-3.6,0.3-6,2.8-6.8,6.8c-0.8,0-1.6,0-2.5,0c0-4.5,0-9,0-13.7c2.1-0.3,4.3-0.7,6.5-1
			c1-0.1,1.8-0.4,2.5-1.2c2-2.3,4.2-4.5,6.3-6.8c1-1.1,2.1-1.6,3.5-1.8c9.4-1.4,18.8-1.5,28.3-0.2c1.8,0.3,3.4,0.9,4.8,2.2
			c2.5,2.4,5.2,4.7,7.8,7c0.4,0.3,0.9,0.5,1.4,0.6c6.1,0.9,12.2,1.6,18,3.5c1.1,0.4,2.2,0.9,3.3,1.5c0.8,0.4,1.1,1.1,0.7,2
			C124.4,78.2,123.9,79.6,123.4,81.2z M74.3,60.9c-4.6,0.4-9.1,0.9-13.5,1.3c-0.5,0.1-1.2,0.1-1.5,0.5c-2.2,2.2-4.4,4.4-6.8,6.9
			c7.5,0,14.6,0,21.8,0C74.3,66.8,74.3,64.1,74.3,60.9z M76.5,69.6c4.3,0,8.6,0,12.8,0c0.3,0,0.6-0.3,0.8-0.5
			c0.7-0.8,1.3-1.6,1.9-2.5c0.4,0.3,0.6,0.6,0.9,0.8c-0.6,0.8-1.1,1.4-1.6,2.2c2.3,0,4.4,0,6.9,0c-2.6-2.4-4.9-4.7-7.3-6.9
			c-0.2-0.2-0.4-0.3-0.7-0.3c-1.3-0.2-2.6-0.5-4-0.7c1.2,2.7,1,4.6-0.8,5.9c-1.5,1.1-3.6,1-5-0.2c-1.7-1.5-1.7-3.4,0-6
			c-1.4,0-2.6,0-4,0C76.5,64,76.5,66.7,76.5,69.6z M59.6,73.1c0.1-0.1,0.2-0.2,0.3-0.4c-0.3-0.2-0.5-0.6-0.8-0.6
			c-1.2-0.1-2.4,0-3.6,0c-0.8,0-0.9,0.4-0.6,1C56.5,73.1,58,73.1,59.6,73.1z M78.7,73.1c1.4,0,2.8,0,4.2,0c0.2,0,0.4-0.3,0.7-0.4
			c-0.2-0.2-0.4-0.5-0.7-0.5c-1.2-0.1-2.4,0-3.6,0C78.5,72.1,78.4,72.4,78.7,73.1z"/>
		<path fill="#FFFFFF" d="M128.1,93.1c0,0.9,0,1.7,0,2.6c-28.8,0-57.6,0-86.4,0c0-0.9,0-1.7,0-2.6C70.5,93.1,99.2,93.1,128.1,93.1z"
			/>
		<path fill="#FFFFFF" d="M38.5,52.5c0,3.4-2.9,6.2-6.3,6.1c-3.3,0-6.1-2.9-6.1-6.2c0-3.4,2.8-6.2,6.2-6.2
			C35.7,46.3,38.5,49.1,38.5,52.5z"/>
		<path fill="#FFFFFF" d="M103.7,60.1c-1.4,1.1-2.8,2.1-4.1,3.1c0,0-0.1-0.1-0.1-0.1c0.7-1.2,1.3-2.5,2.1-3.7
			c0.4-0.6,0.3-1.1-0.1-1.7c-2.4-3.6-2.7-7.4-0.6-11.1c2.1-3.8,5.5-5.6,9.7-5.4c5.3,0.2,9.8,4.8,10,9.9c0.1,5.9-3.8,10.5-9.4,11.1
			C108.5,62.4,106,61.7,103.7,60.1z M109.7,43.2c-5,0-8.9,4-8.9,8.9c0,4.9,4,9,9,9c4.9,0,9-4.1,8.9-9
			C118.6,47.1,114.6,43.1,109.7,43.2z"/>
		<path fill="#FFFFFF" d="M51.7,79.5c3.3,0,5.9,2.6,5.9,5.9c0,3.3-2.6,5.9-5.9,5.9c-3.3,0-6-2.7-6-6C45.7,82,48.3,79.5,51.7,79.5z
			 M56.1,85.5c0.1-2.6-1.8-4.6-4.4-4.7c-2.5-0.1-4.6,1.9-4.7,4.4c-0.1,2.5,2,4.6,4.5,4.7C54,90,56.1,88,56.1,85.5z"/>
		<path fill="#FFFFFF" d="M109.2,79.5c3.3,0,5.9,2.6,5.8,6c0,3.3-2.6,5.9-5.9,5.9c-3.3,0-5.9-2.6-5.9-5.9
			C103.2,82.1,105.8,79.5,109.2,79.5z M113.6,85.4c0-2.5-2-4.6-4.5-4.6c-2.5,0-4.6,2.1-4.6,4.6c0,2.4,2,4.5,4.5,4.5
			C111.5,90,113.6,88,113.6,85.4z"/>
		<path fill="#FFFFFF" d="M51.5,43.9c-2.7,1-2.1,3.6-3,5.3c-1.8-1.8-3.6-3.5-5.3-5.3c-0.2-0.2-0.2-1,0-1.3c0.9-1,1.8-1.9,2.8-2.8
			c0.3-0.2,1-0.3,1.3,0C48.7,41.1,50.1,42.5,51.5,43.9z"/>
		<path fill="#FFFFFF" d="M49.8,85.4c0-1.1,0.7-1.8,1.8-1.9c1,0,1.9,0.8,1.9,1.8c0,1-0.8,1.8-1.8,1.9C50.6,87.2,49.8,86.5,49.8,85.4
			z"/>
		<path fill="#FFFFFF" d="M110.9,85.4c0,1-0.8,1.8-1.8,1.8c-1,0-1.8-0.8-1.8-1.8c0-1.1,0.8-1.8,1.8-1.8
			C110.1,83.6,110.9,84.4,110.9,85.4z"/>
	</g>
</g>
<g>
	<g>
		<path fill="#FFFFFF" d="M57.4,130.3c-0.8-0.7-1-1.5-0.9-2.5c0.1-1.9,0-3.8,0-5.7c0-1.3-0.4-2.5-1.2-3.6c-1.2-1.6-2.4-3.2-3.6-4.8
			c-1.1-1.4-1.7-3-1.7-4.8c-0.1-2.5,0-5,0-7.5c0-0.8,0.3-1.6,1.2-1.7c0.5-0.1,1.2,0.1,1.6,0.4c0.3,0.3,0.5,1,0.5,1.6
			c0.1,2.1,0.1,4.3,0,6.4c0,1.5,0.4,2.8,1.3,4c1.1,1.4,2.1,2.9,3.2,4.3c1.3,1.7,2,3.6,1.9,5.8c0,1.6,0,3.1,0,4.8
			c10.5,0,20.8,0,31.4,0c0-0.5,0-0.9,0-1.4c-0.2-4.3,0.4-8.4,1.5-12.5c0.4-1.4,0.6-3,0.6-4.4c0.1-7.9,0-15.7,0-23.6
			c0-1.8-1-3-2.4-3.1c-1.7-0.2-3,1.1-3,3c0,2.8,0,5.6,0,8.4c0,1.3-0.9,2.1-2.1,1.7c-0.9-0.3-1.2-1-1.2-1.8c0-4.3,0-8.5,0-12.8
			c0-1.6-0.9-2.8-2.2-3c-1.8-0.3-3.2,0.9-3.2,2.7c0,4.2,0,8.4,0,12.6c0,0.5,0,0.9-0.2,1.4c-0.3,0.7-0.9,1-1.6,0.9
			c-0.8-0.1-1.2-0.5-1.3-1.3c-0.1-0.4-0.1-0.8-0.1-1.2c0-5.3,0-10.6,0-15.9c0-0.5,0-1-0.1-1.5c-0.2-1.3-1.4-2.2-2.7-2.2
			c-1.3,0-2.4,0.9-2.6,2.3c-0.1,0.5-0.1,0.9-0.1,1.4c0,5.3,0,10.5,0,15.8c0,0.4,0,0.8,0,1.2c-0.1,0.9-0.7,1.4-1.6,1.4
			c-0.9,0-1.4-0.5-1.6-1.4c-0.1-0.3,0-0.7,0-1.1c0-10.4,0-20.7,0-31.1c0-1.1-0.2-2-1.1-2.7c-0.8-0.6-1.7-0.7-2.6-0.3
			c-1,0.4-1.5,1.2-1.7,2.2c-0.1,0.4,0,0.8,0,1.2c0,11.8,0,23.7,0,35.5c0,1.7-1,2.5-2.2,3.3c-0.6,0.4-1.4,0.2-1.9-0.4
			c-0.5-0.7-0.6-1.5,0-2c0.8-0.7,0.8-1.5,0.8-2.4c0-2.9,0-5.7,0-8.6c0-2.2-1.9-3.5-3.8-2.7c-1,0.5-1.6,1.3-1.6,2.4c0,2,0,3.9,0,5.9
			c0,0.3,0,0.6,0,1c-0.1,0.9-0.6,1.4-1.6,1.5c-0.9,0-1.6-0.5-1.6-1.5c0-2.7-0.2-5.4,0.2-8.1c0.4-3.2,4-5.3,7.2-4.5
			c0.4,0.1,0.7,0.2,1.3,0.4c0-0.5,0-0.8,0-1.2c0-6.5,0-13.1,0-19.6c0-4.4,4.9-7.1,8.7-5c1.8,1,3,2.6,3,4.7c0.1,2.7,0.1,5.5,0.1,8.3
			c0,0.5,0,0.9,0,1.6c1.9-0.7,3.7-0.8,5.4,0.1c1.7,0.9,2.7,2.4,3.2,4.2c4.8-1.2,6.4-0.4,8.8,4.5c3.4-1,6.1-0.3,7.6,2.3
			c0.6,1,1,2.3,1,3.5c0.1,7.9,0.1,15.7,0,23.6c0,2.5-0.6,4.9-1.2,7.4c-0.6,2.5-1,5-0.9,7.6c0,1.4,0,2.8,0,4.2c0,1-0.2,1.8-1,2.4
			C81.4,130.3,69.4,130.3,57.4,130.3z"/>
		<path fill="#FFFFFF" d="M88.7,36c0,2.6,0.1,5.1,0,7.7c-0.1,4.1-3.4,7.6-7.4,7.7c-5.3,0.2-10.6,0.2-16,0c-4.1-0.1-7.4-3.6-7.5-7.7
			c-0.1-5.1-0.1-10.3,0-15.4c0.1-4.2,3.7-7.7,7.9-7.7c5,0,10,0,15,0c4.3,0,7.8,3.5,7.9,7.8C88.7,30.9,88.7,33.4,88.7,36z M73.2,48.2
			c2.4,0,4.9,0,7.3,0c2.8,0,4.9-2.2,5-5c0-4.8,0-9.6,0-14.5c0-2.8-2.1-5-4.9-5c-4.9-0.1-9.7-0.1-14.6,0c-2.9,0-5,2.2-5,5.1
			c0,4.8,0,9.5,0,14.3c0,3,2.1,5.1,5,5.1C68.4,48.2,70.8,48.2,73.2,48.2z"/>
		<path fill="#FFFFFF" d="M38.6,51.4c-2.6,0-5.3,0.1-7.9,0c-4.1-0.2-7.5-3.7-7.5-7.8c-0.1-5.1-0.1-10.1,0-15.2
			c0.1-4.3,3.7-7.8,8-7.9c1.2,0,2.4,0,3.5,0c1.1,0,1.8,0.7,1.8,1.6c0,0.9-0.7,1.6-1.8,1.6c-1,0-2.1,0-3.1,0c-3,0-5.2,2-5.2,5
			c-0.1,4.9-0.1,9.7,0,14.6c0.1,3,2.2,4.9,5.2,4.9c4.7,0,9.4,0,14,0c3.1,0,5.2-2,5.2-5.2c0-4.7,0-9.4,0-14.1c0-3.1-2.1-5.1-5.2-5.2
			c-1,0-2.1,0-3.1,0c-1.1,0-1.8-0.7-1.8-1.6c0-0.9,0.7-1.6,1.8-1.6c1.6,0,3.2-0.1,4.7,0.1c4.1,0.7,6.8,3.9,6.9,8.2
			c0.1,4.8,0.1,9.6,0,14.4c-0.1,4.7-3.3,8-8,8.2C43.6,51.6,41.1,51.5,38.6,51.4C38.6,51.4,38.6,51.4,38.6,51.4z"/>
		<path fill="#FFFFFF" d="M107.9,20.5c2.5,0,4.9,0,7.4,0c4.4,0,8,3.6,8.1,7.9c0.1,5,0.1,10,0,15c-0.1,4.2-3.4,7.7-7.6,8
			c-1.3,0.1-2.6,0.1-4,0.1c-1.1,0-1.8-0.7-1.8-1.6c0-1,0.7-1.6,1.8-1.6c1,0,2,0,3,0c3,0,5.2-1.9,5.2-4.9c0.1-4.9,0.1-9.7,0-14.6
			c-0.1-3-2.2-5-5.2-5c-4.7,0-9.4,0-14,0c-3.1,0-5.2,2.1-5.2,5.2c0,4.7,0,9.4,0,14.1c0,3.1,2.1,5.1,5.2,5.1c1,0,2.1,0,3.1,0
			c1,0,1.8,0.7,1.8,1.6c0,0.9-0.7,1.6-1.7,1.6c-1.7,0-3.5,0.1-5.2-0.2c-3.9-0.8-6.4-4-6.5-8.1c-0.1-4.8-0.1-9.6,0-14.4
			c0.1-4.9,3.7-8.3,8.5-8.3C103.2,20.5,105.5,20.5,107.9,20.5z"/>
		<path fill="#FFFFFF" d="M36.9,37c1.8-1.8,3.5-3.5,5.2-5.2c0.6-0.6,1.3-0.7,2-0.3c0.7,0.4,1,1,0.8,1.7c-0.1,0.4-0.3,0.7-0.6,1
			c-2,2-4,4-6,6c-0.9,0.9-1.8,0.9-2.7,0c-1-0.9-1.9-1.9-2.9-2.9c-0.7-0.8-0.8-1.7-0.1-2.4c0.6-0.6,1.6-0.6,2.4,0.1
			C35.7,35.6,36.2,36.2,36.9,37z"/>
	</g>
</g>
</svg>
